<mxfile host="Electron" agent="Mozilla/5.0 (Windows NT 10.0; Win64; x64) AppleWebKit/537.36 (KHTML, like Gecko) draw.io/28.1.2 Chrome/138.0.7204.243 Electron/37.4.0 Safari/537.36" version="28.1.2">
  <diagram name="Page-1" id="v6Jl4wNEBC6HYh1H6-Ys">
    <mxGraphModel dx="477" dy="593" grid="1" gridSize="10" guides="1" tooltips="1" connect="1" arrows="1" fold="1" page="1" pageScale="1" pageWidth="827" pageHeight="1169" math="0" shadow="0">
      <root>
        <mxCell id="0" />
        <mxCell id="1" parent="0" />
        <mxCell id="uUui6Sq1zmbYHL7bbp5t-1" value="Receptionist" style="shape=umlActor;verticalLabelPosition=bottom;verticalAlign=top;html=1;outlineConnect=0;" vertex="1" parent="1">
          <mxGeometry x="30" y="210" width="50" height="90" as="geometry" />
        </mxCell>
        <mxCell id="uUui6Sq1zmbYHL7bbp5t-2" value="" style="rounded=0;whiteSpace=wrap;html=1;" vertex="1" parent="1">
          <mxGeometry x="90" y="80" width="390" height="390" as="geometry" />
        </mxCell>
        <mxCell id="uUui6Sq1zmbYHL7bbp5t-3" value="UC : Hospital reception system" style="rounded=0;whiteSpace=wrap;html=1;" vertex="1" parent="1">
          <mxGeometry x="90" y="80" width="390" height="60" as="geometry" />
        </mxCell>
        <mxCell id="uUui6Sq1zmbYHL7bbp5t-4" value="Schedule Appointment" style="ellipse;whiteSpace=wrap;html=1;" vertex="1" parent="1">
          <mxGeometry x="120" y="150" width="120" height="40" as="geometry" />
        </mxCell>
        <mxCell id="uUui6Sq1zmbYHL7bbp5t-5" value="Schedule Admission" style="ellipse;whiteSpace=wrap;html=1;" vertex="1" parent="1">
          <mxGeometry x="130" y="230" width="120" height="50" as="geometry" />
        </mxCell>
        <mxCell id="uUui6Sq1zmbYHL7bbp5t-6" value="Collect Patient Information" style="ellipse;whiteSpace=wrap;html=1;" vertex="1" parent="1">
          <mxGeometry x="270" y="170" width="120" height="80" as="geometry" />
        </mxCell>
        <mxCell id="uUui6Sq1zmbYHL7bbp5t-7" value="Patient Registration" style="ellipse;whiteSpace=wrap;html=1;" vertex="1" parent="1">
          <mxGeometry x="354" y="245" width="120" height="60" as="geometry" />
        </mxCell>
        <mxCell id="uUui6Sq1zmbYHL7bbp5t-8" value="Outpatient Admission" style="ellipse;whiteSpace=wrap;html=1;" vertex="1" parent="1">
          <mxGeometry x="380" y="310" width="80" height="60" as="geometry" />
        </mxCell>
        <mxCell id="uUui6Sq1zmbYHL7bbp5t-9" value="Inpatient Admission" style="ellipse;whiteSpace=wrap;html=1;" vertex="1" parent="1">
          <mxGeometry x="250" y="340" width="120" height="50" as="geometry" />
        </mxCell>
        <mxCell id="uUui6Sq1zmbYHL7bbp5t-10" value="Assign Bed" style="ellipse;whiteSpace=wrap;html=1;" vertex="1" parent="1">
          <mxGeometry x="110" y="290" width="120" height="50" as="geometry" />
        </mxCell>
        <mxCell id="uUui6Sq1zmbYHL7bbp5t-11" value="File Insurance Claim" style="ellipse;whiteSpace=wrap;html=1;" vertex="1" parent="1">
          <mxGeometry x="120" y="400" width="120" height="50" as="geometry" />
        </mxCell>
        <mxCell id="uUui6Sq1zmbYHL7bbp5t-12" value="File Medical Report" style="ellipse;whiteSpace=wrap;html=1;" vertex="1" parent="1">
          <mxGeometry x="260" y="395" width="120" height="60" as="geometry" />
        </mxCell>
        <mxCell id="uUui6Sq1zmbYHL7bbp5t-13" value="" style="endArrow=classic;html=1;rounded=0;exitX=1;exitY=0.3333333333333333;exitDx=0;exitDy=0;exitPerimeter=0;entryX=-0.008;entryY=0.675;entryDx=0;entryDy=0;entryPerimeter=0;" edge="1" parent="1" source="uUui6Sq1zmbYHL7bbp5t-1" target="uUui6Sq1zmbYHL7bbp5t-4">
          <mxGeometry width="50" height="50" relative="1" as="geometry">
            <mxPoint x="230" y="320" as="sourcePoint" />
            <mxPoint x="280" y="270" as="targetPoint" />
          </mxGeometry>
        </mxCell>
        <mxCell id="uUui6Sq1zmbYHL7bbp5t-14" value="" style="endArrow=classic;html=1;rounded=0;entryX=0;entryY=0.5;entryDx=0;entryDy=0;" edge="1" parent="1" target="uUui6Sq1zmbYHL7bbp5t-5">
          <mxGeometry width="50" height="50" relative="1" as="geometry">
            <mxPoint x="80" y="240" as="sourcePoint" />
            <mxPoint x="89" y="230" as="targetPoint" />
          </mxGeometry>
        </mxCell>
        <mxCell id="uUui6Sq1zmbYHL7bbp5t-15" value="" style="endArrow=classic;html=1;rounded=0;exitX=1;exitY=0.3333333333333333;exitDx=0;exitDy=0;exitPerimeter=0;entryX=0;entryY=0.5;entryDx=0;entryDy=0;" edge="1" parent="1" source="uUui6Sq1zmbYHL7bbp5t-1" target="uUui6Sq1zmbYHL7bbp5t-6">
          <mxGeometry width="50" height="50" relative="1" as="geometry">
            <mxPoint x="100" y="333" as="sourcePoint" />
            <mxPoint x="139" y="270" as="targetPoint" />
          </mxGeometry>
        </mxCell>
        <mxCell id="uUui6Sq1zmbYHL7bbp5t-16" value="" style="endArrow=classic;html=1;rounded=0;entryX=0;entryY=0.5;entryDx=0;entryDy=0;" edge="1" parent="1" target="uUui6Sq1zmbYHL7bbp5t-7">
          <mxGeometry width="50" height="50" relative="1" as="geometry">
            <mxPoint x="80" y="240" as="sourcePoint" />
            <mxPoint x="129" y="240" as="targetPoint" />
          </mxGeometry>
        </mxCell>
        <mxCell id="uUui6Sq1zmbYHL7bbp5t-17" value="" style="endArrow=classic;html=1;rounded=0;exitX=1;exitY=0.3333333333333333;exitDx=0;exitDy=0;exitPerimeter=0;entryX=0;entryY=0.5;entryDx=0;entryDy=0;" edge="1" parent="1" source="uUui6Sq1zmbYHL7bbp5t-1" target="uUui6Sq1zmbYHL7bbp5t-8">
          <mxGeometry width="50" height="50" relative="1" as="geometry">
            <mxPoint x="180" y="353" as="sourcePoint" />
            <mxPoint x="219" y="290" as="targetPoint" />
          </mxGeometry>
        </mxCell>
        <mxCell id="uUui6Sq1zmbYHL7bbp5t-18" value="" style="endArrow=classic;html=1;rounded=0;exitX=1;exitY=0.3333333333333333;exitDx=0;exitDy=0;exitPerimeter=0;entryX=0;entryY=0.5;entryDx=0;entryDy=0;" edge="1" parent="1" source="uUui6Sq1zmbYHL7bbp5t-1" target="uUui6Sq1zmbYHL7bbp5t-9">
          <mxGeometry width="50" height="50" relative="1" as="geometry">
            <mxPoint x="160" y="343" as="sourcePoint" />
            <mxPoint x="199" y="280" as="targetPoint" />
          </mxGeometry>
        </mxCell>
        <mxCell id="uUui6Sq1zmbYHL7bbp5t-19" value="" style="endArrow=classic;html=1;rounded=0;exitX=1;exitY=0.3333333333333333;exitDx=0;exitDy=0;exitPerimeter=0;entryX=0;entryY=0.5;entryDx=0;entryDy=0;" edge="1" parent="1" source="uUui6Sq1zmbYHL7bbp5t-1" target="uUui6Sq1zmbYHL7bbp5t-11">
          <mxGeometry width="50" height="50" relative="1" as="geometry">
            <mxPoint x="280" y="383" as="sourcePoint" />
            <mxPoint x="319" y="320" as="targetPoint" />
          </mxGeometry>
        </mxCell>
        <mxCell id="uUui6Sq1zmbYHL7bbp5t-20" value="" style="endArrow=classic;html=1;rounded=0;exitX=1;exitY=0.3333333333333333;exitDx=0;exitDy=0;exitPerimeter=0;entryX=0;entryY=0.5;entryDx=0;entryDy=0;" edge="1" parent="1" source="uUui6Sq1zmbYHL7bbp5t-1" target="uUui6Sq1zmbYHL7bbp5t-12">
          <mxGeometry width="50" height="50" relative="1" as="geometry">
            <mxPoint x="180" y="413" as="sourcePoint" />
            <mxPoint x="219" y="350" as="targetPoint" />
          </mxGeometry>
        </mxCell>
        <mxCell id="uUui6Sq1zmbYHL7bbp5t-21" value="&amp;lt;&amp;lt;include&amp;gt;&amp;gt;" style="html=1;verticalAlign=bottom;labelBackgroundColor=none;endArrow=open;endFill=0;dashed=1;rounded=0;exitX=1;exitY=0.5;exitDx=0;exitDy=0;entryX=0.5;entryY=0;entryDx=0;entryDy=0;" edge="1" parent="1" source="uUui6Sq1zmbYHL7bbp5t-4" target="uUui6Sq1zmbYHL7bbp5t-6">
          <mxGeometry width="160" relative="1" as="geometry">
            <mxPoint x="180" y="300" as="sourcePoint" />
            <mxPoint x="340" y="310" as="targetPoint" />
          </mxGeometry>
        </mxCell>
        <mxCell id="uUui6Sq1zmbYHL7bbp5t-22" value="&amp;lt;&amp;lt;include&amp;gt;&amp;gt;" style="html=1;verticalAlign=bottom;labelBackgroundColor=none;endArrow=open;endFill=0;dashed=1;rounded=0;exitX=1;exitY=0.5;exitDx=0;exitDy=0;entryX=0.5;entryY=1;entryDx=0;entryDy=0;" edge="1" parent="1" source="uUui6Sq1zmbYHL7bbp5t-5" target="uUui6Sq1zmbYHL7bbp5t-6">
          <mxGeometry width="160" relative="1" as="geometry">
            <mxPoint x="280" y="220" as="sourcePoint" />
            <mxPoint x="350" y="220" as="targetPoint" />
          </mxGeometry>
        </mxCell>
        <mxCell id="uUui6Sq1zmbYHL7bbp5t-23" value="&amp;lt;&amp;lt;include&amp;gt;&amp;gt;" style="html=1;verticalAlign=bottom;labelBackgroundColor=none;endArrow=open;endFill=0;dashed=1;rounded=0;exitX=0.5;exitY=0;exitDx=0;exitDy=0;entryX=0.983;entryY=0.663;entryDx=0;entryDy=0;entryPerimeter=0;" edge="1" parent="1" source="uUui6Sq1zmbYHL7bbp5t-7" target="uUui6Sq1zmbYHL7bbp5t-6">
          <mxGeometry width="160" relative="1" as="geometry">
            <mxPoint x="350" y="260" as="sourcePoint" />
            <mxPoint x="420" y="260" as="targetPoint" />
          </mxGeometry>
        </mxCell>
        <mxCell id="uUui6Sq1zmbYHL7bbp5t-24" value="&amp;lt;&amp;lt;include&amp;gt;&amp;gt;" style="html=1;verticalAlign=bottom;labelBackgroundColor=none;endArrow=open;endFill=0;dashed=1;rounded=0;entryX=0.983;entryY=0.38;entryDx=0;entryDy=0;exitX=1;exitY=0.5;exitDx=0;exitDy=0;entryPerimeter=0;" edge="1" parent="1" source="uUui6Sq1zmbYHL7bbp5t-9" target="uUui6Sq1zmbYHL7bbp5t-10">
          <mxGeometry width="160" relative="1" as="geometry">
            <mxPoint x="260" y="300" as="sourcePoint" />
            <mxPoint x="330" y="300" as="targetPoint" />
          </mxGeometry>
        </mxCell>
        <mxCell id="uUui6Sq1zmbYHL7bbp5t-28" style="edgeStyle=orthogonalEdgeStyle;rounded=0;orthogonalLoop=1;jettySize=auto;html=1;exitX=0.5;exitY=1;exitDx=0;exitDy=0;" edge="1" parent="1" source="uUui6Sq1zmbYHL7bbp5t-8" target="uUui6Sq1zmbYHL7bbp5t-8">
          <mxGeometry relative="1" as="geometry" />
        </mxCell>
      </root>
    </mxGraphModel>
  </diagram>
</mxfile>
